#!OML:ASF H:\Punching\Project 1\Capture day 1\Session 1\female.ASF
:FULLY-SPECIFIED
:DEGREES
2052
root -1.00892 15.8488 17.2896 -351.105 5.51693 -362.566
lowerback -7.48788 -2.64796 4.07048
upperback -6.56755 -3.67829 2.6615
thorax -2.70066 -1.9333 0.29649
lowerneck -12.8995 6.39006 11.1364
upperneck 38.9853 9.70121 -7.88719
head 17.5274 4.65567 -3.75095
rclavicle -1.80894e-014 -1.59028e-015
rhumerus -44.1766 -20.3011 -58.7724
rradius 21.8473
rwrist 18.0887
rhand -11.6234 -5.25962
rfingers 7.12502
rthumb 14.4199 -34.7387
lclavicle -1.80894e-014 -1.59028e-015
lhumerus -41.1491 8.66787 81.2223
lradius 34.1794
lwrist -23.0636
lhand -1.90898 10.0631
lfingers 7.12502
lthumb 23.7607 38.6141
rfemur -21.9957 0.113064 26.3432
rtibia 20.1976
rfoot -8.80249 -8.05674
rtoes 5.76999
lfemur -11.261 -0.506475 -18.7446
ltibia 51.9602
lfoot -0.418195 8.05782
ltoes -4.09089
2053
root -1.02681 15.8552 17.3837 -351.156 5.63032 -362.831
lowerback -7.29776 -2.59011 4.31855
upperback -6.55553 -3.60167 2.68404
thorax -2.80717 -1.90458 0.196011
lowerneck -12.9817 6.37738 11.1078
upperneck 38.9133 9.68024 -7.89167
head 17.5022 4.6399 -3.74706
rclavicle -6.36111e-015 1.35174e-014
rhumerus -43.7376 -19.7834 -59.3655
rradius 22.1236
rwrist 17.5912
rhand -11.5922 -5.47161
rfingers 7.12502
rthumb 14.4499 -34.9485
lclavicle -6.36111e-015 1.35174e-014
lhumerus -41.3293 8.61919 81.0982
lradius 34.0731
lwrist -23.1986
lhand -1.77162 10.0576
lfingers 7.12502
lthumb 23.8924 38.5914
rfemur -21.2888 0.00672537 26.7687
rtibia 19.6096
rfoot -8.64538 -8.03463
rtoes 6.30589
lfemur -12.8214 -0.261582 -18.3638
ltibia 54.2815
lfoot -0.709057 8.83669
ltoes -3.7216
2054
root -1.04293 15.859 17.4758 -351.223 5.70489 -363.047
lowerback -7.08285 -2.52005 4.52598
upperback -6.52994 -3.50535 2.68558
thorax -2.91067 -1.86502 0.0974417
lowerneck -13.0647 6.36032 11.0827
upperneck 38.8207 9.65151 -7.90192
head 17.4653 4.62053 -3.74722
rclavicle 3.18055e-014 -1.27222e-014
rhumerus -43.2812 -19.2372 -59.9722
rradius 22.3958
rwrist 17.0814
rhand -11.6303 -5.66044
rfingers 7.12502
rthumb 14.4132 -35.14
lclavicle 3.18055e-014 -1.27222e-014
lhumerus -41.4964 8.5568 80.9755
lradius 33.9909
lwrist -23.3079
lhand -1.72479 10.0565
lfingers 7.12502
lthumb 23.9373 38.5844
rfemur -20.6356 -0.0877332 27.1285
rtibia 19.1535
rfoot -8.55412 -7.99984
rtoes 6.80622
lfemur -14.326 -0.00944261 -18.0763
ltibia 56.3814
lfoot -1.25124 9.68942
ltoes -3.25043
2055
root -1.05769 15.8612 17.566 -351.29 5.74085 -363.21
lowerback -6.85635 -2.43839 4.68548
upperback -6.49544 -3.39068 2.66608
thorax -3.00815 -1.81495 0.00392118
lowerneck -13.1464 6.33899 11.0608
upperneck 38.7096 9.61445 -7.91483
head 17.4168 4.59772 -3.7501
rclavicle -3.97569e-015 -1.35174e-014
rhumerus -42.8078 -18.6613 -60.5921
rradius 22.6631
rwrist 16.5669
rhand -11.7234 -5.83695
rfingers 7.12502
rthumb 14.3236 -35.3229
lclavicle -3.97569e-015 -1.35174e-014
lhumerus -41.6469 8.49628 80.8428
lradius 33.9158
lwrist -23.4085
lhand -1.76164 10.0418
lfingers 7.12502
lthumb 23.902 38.5743
rfemur -20.052 -0.169656 27.4222
rtibia 18.8354
rfoot -8.54042 -7.96078
rtoes 7.23673
lfemur -15.7827 0.23675 -17.8812
ltibia 58.2394
lfoot -1.90851 10.545
ltoes -2.66192
2056
root -1.07119 15.8622 17.6549 -351.355 5.73508 -363.32
lowerback -6.63061 -2.34359 4.79756
upperback -6.4492 -3.25697 2.62502
thorax -3.08979 -1.75382 -0.0862735
lowerneck -13.2351 6.31555 11.0421
upperneck 38.5849 9.57022 -7.92622
head 17.3617 4.57229 -3.75357
rclavicle -4.27387e-015 -1.11319e-014
rhumerus -42.3163 -18.0929 -61.2011
rradius 22.9146
rwrist 16.0908
rhand -11.8207 -5.98885
rfingers 7.12502
rthumb 14.2298 -35.4814
lclavicle -4.27387e-015 -1.11319e-014
lhumerus -41.7723 8.4422 80.7
lradius 33.8403
lwrist -23.4876
lhand -1.89013 10.023
lfingers 7.12502
lthumb 23.7788 38.5716
rfemur -19.5304 -0.23472 27.6514
rtibia 18.6372
rfoot -8.59976 -7.91971
rtoes 7.58599
lfemur -17.1863 0.466088 -17.7744
ltibia 59.8431
lfoot -2.5674 11.361
ltoes -2.03986
2057
root -1.08379 15.8624 17.7428 -351.403 5.69487 -363.382
lowerback -6.4248 -2.23832 4.86094
upperback -6.39357 -3.10922 2.56566
thorax -3.14731 -1.68384 -0.17014
lowerneck -13.3299 6.29005 11.0251
upperneck 38.4491 9.51838 -7.93296
head 17.3009 4.54425 -3.75609
rclavicle -3.73715e-014 1.31198e-014
rhumerus -41.8028 -17.5196 -61.8109
rradius 23.1566
rwrist 15.6366
rhand -11.9399 -6.14
rfingers 7.12502
rthumb 14.1149 -35.6406
lclavicle -3.73715e-014 1.31198e-014
lhumerus -41.8757 8.40457 80.5433
lradius 33.764
lwrist -23.548
lhand -2.10391 9.99758
lfingers 7.12502
lthumb 23.5737 38.5727
rfemur -19.0729 -0.272886 27.8208
rtibia 18.5388
rfoot -8.72587 -7.89624
rtoes 7.87732
lfemur -18.547 0.666284 -17.7464
ltibia 61.1903
lfoot -3.19777 12.0996
ltoes -1.55021
2058
root -1.09545 15.8622 17.8304 -351.432 5.62533 -363.418
lowerback -6.25155 -2.12053 4.90185
upperback -6.33244 -2.94656 2.49309
thorax -3.17913 -1.60541 -0.257235
lowerneck -13.4214 6.26152 11.0111
upperneck 38.3098 9.45824 -7.93349
head 17.2361 4.51408 -3.75784
rclavicle 2.89729e-014 2.26615e-014
rhumerus -41.2783 -16.963 -62.4005
rradius 23.3918
rwrist 15.2515
rhand -12.0177 -6.28366
rfingers 7.12502
rthumb 14.0399 -35.7895
lclavicle 2.89729e-014 2.26615e-014
lhumerus -41.9681 8.37886 80.3725
lradius 33.6919
lwrist -23.5735
lhand -2.39178 9.97297
lfingers 7.12502
lthumb 23.2976 38.5834
rfemur -18.6705 -0.284225 27.9567
rtibia 18.5174
rfoot -8.89913 -7.89123
rtoes 8.11282
lfemur -19.8661 0.83147 -17.7684
ltibia 62.2858
lfoot -3.79352 12.7249
ltoes -1.23109
2059
root -1.10646 15.8616 17.918 -351.438 5.53528 -363.433
lowerback -6.11953 -1.99398 4.92022
upperback -6.26837 -2.77449 2.40961
thorax -3.18322 -1.5212 -0.345371
lowerneck -13.5062 6.22968 11.0001
upperneck 38.1698 9.38953 -7.9268
head 17.168 4.48191 -3.75863
rclavicle 6.25675e-014 -7.95139e-016
rhumerus -40.7428 -16.4245 -62.9727
rradius 23.6089
rwrist 14.9129
rhand -12.0963 -6.38778
rfingers 7.12502
rthumb 13.9642 -35.8988
lclavicle 6.25675e-014 -7.95139e-016
lhumerus -42.0497 8.36659 80.1874
lradius 33.6218
lwrist -23.5457
lhand -2.73312 9.96123
lfingers 7.12502
lthumb 22.9701 38.6127
rfemur -18.3188 -0.260349 28.0644
rtibia 18.5538
rfoot -9.10609 -7.92267
rtoes 8.31816
lfemur -21.1517 0.954675 -17.832
ltibia 63.1376
lfoot -4.36704 13.209
ltoes -1.14129
